<?xml version="1.0" standalone="no"?>
<!DOCTYPE svg PUBLIC "-//W3C//DTD SVG 20010904//EN"
 "http://www.w3.org/TR/2001/REC-SVG-20010904/DTD/svg10.dtd">
<svg version="1.0" xmlns="http://www.w3.org/2000/svg"
 width="641.000000pt" height="641.000000pt" viewBox="0 0 641.000000 641.000000"
 preserveAspectRatio="xMidYMid meet">
<metadata>
Created by potrace 1.11, written by Peter Selinger 2001-2013
</metadata>
<g transform="translate(0.000000,641.000000) scale(0.100000,-0.100000)"
fill="#000000" stroke="none">
<path d="M3137 6134 c-1 -1 -55 -5 -120 -8 -499 -27 -1015 -202 -1442 -490
-198 -133 -439 -345 -570 -501 -27 -33 -55 -64 -61 -70 -6 -5 -38 -47 -72 -91
-228 -305 -405 -669 -498 -1029 -36 -141 -38 -151 -48 -215 -3 -19 -8 -44 -10
-55 -2 -12 -7 -48 -11 -80 -4 -33 -9 -71 -12 -85 -9 -46 -11 -494 -3 -570 5
-41 12 -98 15 -126 3 -29 7 -60 9 -70 2 -11 11 -59 21 -109 45 -245 140 -517
263 -760 58 -114 66 -129 147 -255 171 -267 407 -526 650 -714 55 -43 107 -83
115 -89 49 -39 228 -148 334 -203 197 -103 466 -208 611 -240 6 -1 28 -7 50
-12 52 -14 179 -40 230 -47 22 -3 54 -7 70 -10 51 -8 128 -16 180 -20 72 -5
394 -6 435 -1 19 3 65 7 102 11 37 3 77 8 90 10 13 2 40 6 61 9 83 13 112 18
118 22 3 2 21 6 40 9 81 14 274 70 399 117 774 288 1403 906 1702 1673 29 73
67 181 73 205 1 3 4 12 7 20 24 60 81 327 93 431 3 25 7 55 9 66 27 140 23
588 -8 758 -3 17 -12 73 -21 125 -16 93 -22 121 -52 230 -224 824 -794 1508
-1565 1878 -90 43 -353 147 -397 157 -9 2 -48 13 -87 24 -39 11 -106 28 -150
37 -43 9 -88 18 -99 20 -18 4 -103 17 -195 29 -67 9 -396 24 -403 19z"/>
</g>
</svg>
